<svg width="43" height="32" viewBox="0 0 43 32" fill="none" xmlns="http://www.w3.org/2000/svg">
<g clip-path="url(#clip0)">
<path d="M1.798 12.8261L1.77142 13.7736C1.76555 13.8669 1.76555 13.9604 1.77142 14.0537C1.798 15.1563 2.21693 15.6129 3.28552 15.7091C4.07234 15.7797 4.21269 15.6482 4.24246 14.8344C4.27223 14.0206 4.29988 13.2047 4.32965 12.3898L7.79909 11.5493C7.76294 12.4176 7.73849 13.2806 7.69277 14.1446C7.65768 14.7435 7.90542 15.1648 8.41473 15.3669C8.79057 15.5113 9.18392 15.6044 9.58432 15.6439C9.65857 15.6505 9.73337 15.6417 9.80406 15.6179C9.87475 15.5942 9.93982 15.556 9.9952 15.5059C10.0506 15.4557 10.0951 15.3946 10.1259 15.3263C10.1567 15.2581 10.1733 15.1842 10.1744 15.1092C10.2861 12.4101 10.4222 9.70887 10.4934 7.01083C10.5328 5.472 10.47 3.93638 10.4264 2.40182C10.4201 2.19437 10.3052 1.90991 10.1468 1.82436C9.74522 1.60686 9.31592 1.44567 8.87087 1.34528C8.50617 1.26401 8.39772 1.39554 8.37007 1.788C8.27225 3.19031 8.17797 4.59262 8.08724 5.99493C8.03301 6.83225 7.98623 7.66957 7.93732 8.49299L4.37856 9.06938C4.37856 8.87689 4.37856 8.71542 4.37856 8.55287C4.37218 7.0365 4.35942 5.52226 4.35942 4.00589C4.35942 3.00174 3.88839 2.36547 3.01119 2.0254C2.54123 1.84254 2.30518 1.97514 2.2669 2.49272C2.17015 3.9182 2.09465 5.34689 2.02022 6.76916C1.96812 7.73159 1.93197 8.69403 1.8937 9.57092C1.78737 9.59231 1.60449 9.63081 1.33548 9.68962C0.863388 9.79656 0.680505 10.7269 0.681568 11.2402C0.679442 11.7332 0.696454 12.9031 1.798 12.8261Z" fill="white"/>
<path d="M11.1037 18.1377C11.0793 17.8244 10.9198 17.5816 10.6337 17.4896C10.1021 17.3185 9.43651 16.955 8.95591 17.2629C8.49232 17.3998 8.41789 17.8736 8.31795 18.2179C7.84054 19.822 7.361 21.4175 6.91124 23.0226C6.58163 24.1893 6.27328 25.4212 5.9543 26.6585C5.92222 26.5752 5.8987 26.4888 5.88412 26.4008C5.51091 24.7347 5.1494 23.0654 4.76556 21.4025C4.52845 20.3759 4.26901 19.3568 4.00001 18.3398C3.8756 17.8703 3.647 17.7313 3.18342 17.9056C2.81871 18.0425 2.51356 18.1591 2.14992 18.3206C1.97767 18.3965 1.85964 18.4275 1.66188 18.5066C1.38968 18.6136 1.20042 18.7911 1.16427 19.1055C1.1111 19.5717 1.02498 20.0358 0.97394 20.5021C0.770856 22.3457 0.563518 24.1882 0.382762 26.0329C0.239221 27.4391 0.13821 28.8528 0.0180607 30.2633C-0.0191538 30.6911 -0.0265967 31.5209 0.288131 31.7712C0.691111 32.092 1.32376 31.7829 1.85964 31.7776C2.28495 31.7776 2.37958 31.707 2.42211 31.2803C2.54545 30.0548 2.66773 28.8293 2.77087 27.6038C2.85805 26.5708 2.9176 25.5367 2.9899 24.5026C3.10367 24.8234 3.16853 25.1613 3.25146 25.4907C3.64275 27.0424 4.05423 28.2283 4.44658 29.7789C4.56673 30.2526 4.89422 30.505 5.34398 30.5842C5.68904 30.6579 6.04304 30.6799 6.39449 30.6494C6.59757 30.6237 6.8198 30.4355 6.97716 30.2665C7.09731 30.1372 7.14197 29.9265 7.19513 29.7458C7.59067 28.3941 7.97238 27.407 8.35516 26.0532C8.54336 25.3881 8.70604 24.7165 8.8868 24.0107C8.95059 23.7712 8.94102 24.0909 8.93996 24.1091C8.92933 25.927 8.8868 28.4839 8.88148 30.304C8.88148 31.3113 9.14517 31.6503 10.0979 31.8877C10.3077 31.937 10.521 31.9703 10.7358 31.9872C11.2887 32.0374 11.4471 31.8888 11.4386 31.322C11.3844 28.0497 11.3621 24.0406 11.2887 20.7694C11.2706 19.8904 11.1728 19.0146 11.1037 18.1377Z" fill="white"/>
<path d="M15.3472 14.2227C15.4352 14.2279 15.5187 14.2639 15.5832 14.3243C16.1149 14.8686 16.7837 14.8921 17.4907 14.6932C18.5147 14.4055 19.2122 13.672 19.7725 12.7972C20.8602 11.1001 21.3313 9.24153 21.4493 7.30062C21.5248 6.06442 21.4217 4.86458 20.9177 3.7567C19.1388 -0.17539 15.8033 0.935692 15.8033 0.935692C14.7592 1.22228 14.0585 1.96229 13.4865 2.84132C12.3956 4.51917 11.916 6.37026 11.747 8.29514C11.6321 9.32387 11.9447 11.0146 11.9447 11.0146C12.3339 12.8517 13.3057 14.1275 15.3472 14.2227ZM15.8129 4.77261C16.0941 4.26725 16.5093 3.85038 17.0123 3.56849C17.512 3.30329 17.9618 3.30971 18.2797 3.73746C18.5381 4.08607 18.6104 4.67102 18.6667 5.22175C18.6848 5.4014 18.7093 5.58748 18.7114 5.77355C18.7114 6.14462 18.705 6.74989 18.6699 7.08567C18.5009 8.68225 18.2446 9.86605 17.461 11.2156C17.2771 11.5367 17.0491 11.8301 16.7837 12.0871C16.1106 12.7288 15.3036 12.6315 14.941 11.8316C14.714 11.3353 14.5771 10.8022 14.537 10.2574C14.4126 8.34112 14.7794 6.49538 15.8118 4.77368L15.8129 4.77261Z" fill="white"/>
<path d="M20.9209 19.4627C20.2829 18.5088 19.7768 17.9056 19.0623 17.6126C18.973 17.5763 18.5594 17.2918 18.0171 17.1849C17.0857 16.9956 16.4041 17.1079 15.5142 17.4469C14.4807 17.8415 13.8533 18.6232 13.3876 19.5407C12.5179 21.24 12.2776 23.0194 12.3584 24.8331C12.403 25.9645 12.9081 27.3397 12.9081 27.3397C14.6986 31.7241 18.9166 30.0751 18.9166 30.0751C19.9012 29.6795 20.502 28.9095 20.9475 28.0241C21.813 26.3077 22.0416 24.5187 21.9044 22.6975C21.8225 21.5319 21.5652 20.4251 20.9209 19.4627ZM18.4265 26.8531L18.4158 26.8766C17.6045 28.6625 16.2691 28.6689 15.5801 26.9322C15.501 26.7344 15.4388 26.5301 15.394 26.3216C15.0176 24.5454 15.1814 23.1424 15.9884 21.4025L15.999 21.3811C16.8879 19.484 18.1341 19.0959 18.8018 20.9758C18.8195 21.0257 18.8365 21.076 18.8528 21.1266C19.0059 21.6078 19.0421 22.1297 19.0963 22.4419C19.1388 24.0663 19.0325 25.4832 18.4265 26.8531Z" fill="white"/>
<path d="M30.2277 8.15934C30.3681 8.62452 30.6243 9.39126 30.7594 9.65646C30.8731 9.87889 31.0634 10.7002 31.0518 10.8595C30.9816 11.8359 30.9826 11.4316 30.9146 12.408C30.8959 12.588 30.9215 12.7699 30.9889 12.9377C31.0564 13.1054 31.1638 13.254 31.3016 13.3704C31.7444 13.7198 32.2923 13.9073 32.8551 13.9019C33.1623 13.9019 33.3261 13.7607 33.3452 13.4324C33.3739 12.9416 33.4122 12.4507 33.4643 11.9599C33.5781 10.8905 33.6419 10.7365 34.1682 9.66716C35.2166 7.29314 36.484 4.50742 37.5515 2.14196C37.8216 1.54418 37.7387 1.07258 37.3495 0.644833C37.2118 0.483536 37.061 0.334022 36.8987 0.197834C36.5063 -0.106938 36.3638 -0.0780649 36.1119 0.41064C35.5972 1.4073 35.0901 2.40716 34.6009 3.41452C34.0342 4.58121 33.2719 6.13501 32.6796 7.38083C32.6749 7.39168 32.667 7.40079 32.6569 7.40689C32.6469 7.41298 32.6351 7.41575 32.6234 7.4148C32.6117 7.41386 32.6006 7.40925 32.5916 7.40163C32.5826 7.394 32.5762 7.38374 32.5733 7.37228C32.467 7.02045 32.3543 6.65793 32.3181 6.53389C31.9056 5.10948 31.6163 4.20479 31.2548 2.76541C30.9497 1.56236 30.2267 1.01377 28.9996 1.03195C28.4233 1.0405 28.2713 1.15172 28.3893 1.72276C28.9008 4.2219 29.493 5.73292 30.2277 8.15934Z" fill="white"/>
<path d="M36.67 16.4085C36.4489 16.278 36.2787 16.3401 36.1554 16.5711C36.0321 16.802 35.897 17.0555 35.7833 17.3057C34.9188 19.2103 34.8476 19.391 34.0459 21.1662C34.0305 21.2 34.0054 21.2285 33.9738 21.248C33.9422 21.2674 33.9056 21.2769 33.8686 21.2753C33.8316 21.2737 33.7959 21.261 33.7662 21.2389C33.7364 21.2168 33.7138 21.1863 33.7014 21.1512L33.376 20.2059C33.0826 19.3407 32.9667 19.0499 32.5413 17.5698C32.1958 16.3689 31.4568 15.8246 30.2096 15.8877C29.6493 15.9155 29.4951 16.0321 29.6227 16.57C30.2383 19.1686 30.4627 19.2434 31.3739 21.7297C31.443 21.9201 31.9895 23.2835 32.1607 23.6546C32.2511 23.8481 32.4063 24.2845 32.3967 24.4908C32.3521 25.4725 32.2904 27.5076 32.2575 28.4892C32.2413 28.6658 32.2711 28.8436 32.3438 29.0052C32.4164 29.1668 32.5296 29.3066 32.6721 29.411C33.1347 29.7532 33.6588 29.5533 34.2511 29.534C34.5626 29.5244 34.7115 29.3651 34.72 29.041C34.7338 28.5384 34.7785 28.0358 34.7923 27.5332C34.8444 25.7302 35.0049 24.432 35.5366 23.2824C35.9757 22.3296 36.3872 21.6153 36.771 20.6668C37.3505 19.2338 37.358 19.0627 37.9087 17.6255C38.0022 17.3912 38.019 17.1331 37.9566 16.8887C37.7907 16.3882 37.1145 16.6726 36.67 16.4085Z" fill="white"/>
<path d="M25.7205 14.3671C25.9331 14.3371 26.1575 14.3125 26.3712 14.2601C27.1612 14.0719 27.9523 13.8805 28.7391 13.6741C29.1261 13.5725 29.5706 13.3533 29.6152 12.9341C29.6705 12.4219 29.4207 11.7931 29.2963 11.33C29.1612 10.8242 29.0911 10.7323 28.569 10.7868C27.8704 10.8595 27.5057 10.9258 26.8071 11.0584C26.2064 11.1728 25.612 11.345 24.973 11.5011C24.973 11.3942 24.973 11.3215 24.973 11.2541C25.0081 9.9345 25.0538 8.61489 25.0793 7.29742C25.1048 5.69336 25.0793 3.99412 25.0793 2.39647C25.0793 1.9591 25.1176 1.3271 24.7689 1.0266C24.4499 0.754982 24.1819 0.936776 23.6896 1.20519C23.3388 1.39661 23.0038 1.4843 22.957 1.90028C22.8964 2.43497 22.8433 2.96966 22.8124 3.51183C22.7242 5.04211 22.654 5.72865 22.6147 7.25465C22.5775 8.73573 22.603 10.2157 22.6274 11.6936C22.6381 12.3545 22.6147 13.1672 23.0251 13.5736C23.3272 13.8813 23.6891 14.1231 24.0884 14.2837C24.486 14.4676 25.0485 14.4612 25.7205 14.3671Z" fill="white"/>
<path d="M30.2851 26.2425C29.6004 26.3419 28.1129 26.682 27.4345 26.8403C26.889 26.9675 26.5839 27.0926 26.014 27.2242C25.8088 27.2712 25.7641 27.0007 25.7588 26.9034C25.7375 26.5355 25.7109 26.1109 25.7099 26.0479C25.6929 24.7421 25.6152 24.4951 25.5844 23.1905C25.5461 21.5864 25.6333 20.0283 25.5695 18.4232C25.5525 17.9955 25.5185 17.0704 25.1708 16.7924C24.8231 16.5144 24.4265 16.4395 24.0214 16.2759C23.5876 16.1027 23.1942 16.062 23.1559 16.5571C23.1144 17.0918 23.1336 18.0789 23.124 18.6157C23.0953 20.1577 23.0474 21.7019 23.0687 23.2397C23.09 24.7197 23.175 26.1944 23.2601 27.6669C23.3069 28.4646 23.1974 29.5041 23.7503 29.9896C23.9746 30.1874 24.5817 30.2644 24.7795 30.2612C25.3239 30.2516 25.6195 30.1778 26.2479 30.0933C26.4669 30.0634 27.3228 29.8302 27.5376 29.7789C27.9278 29.6859 29.2314 29.3095 30.0214 29.0656C30.3893 28.9523 30.6062 28.8197 30.6955 28.424C30.8019 27.9546 30.9879 27.3546 30.9837 26.8413C30.9816 26.3066 30.8274 26.1644 30.2851 26.2425Z" fill="white"/>
<path d="M39.4356 19.8423C39.5249 21.7479 39.5993 23.4781 39.6557 25.3902C39.6705 25.9046 41.5578 26.2681 41.5791 25.6853C41.6993 22.3542 42.1777 18.7782 42.4 15.753C42.4435 15.1584 39.3739 14.6226 39.3856 15.4621C39.409 17.1474 39.359 18.1901 39.4356 19.8423Z" fill="white"/>
<path d="M41.6801 27.9107C41.6567 27.745 41.3941 27.5803 41.2718 27.5193C41.0631 27.4178 40.84 27.3493 40.6105 27.3161C40.3904 27.2819 39.6131 27.2092 39.5568 27.5856L39.4473 28.3545C39.4281 28.4818 39.3973 28.6133 39.3898 28.7406C39.3739 29.01 39.5536 29.1341 39.7333 29.2913C39.9693 29.4977 40.3255 29.5854 40.6339 29.6335C40.8986 29.6741 41.2601 29.7148 41.5185 29.5704L41.611 29.5191C41.7875 29.4207 41.8843 29.3223 41.8556 29.1191L41.6801 27.9107Z" fill="white"/>
</g>
<defs>
<clipPath id="clip0">
<rect width="42.4" height="32" fill="white"/>
</clipPath>
</defs>
</svg>
