<svg width="24" height="24" viewBox="0 0 24 24" fill="none" xmlns="http://www.w3.org/2000/svg">
<path d="M6.19357 8.22577C7.31596 8.22577 8.22583 7.3159 8.22583 6.19351C8.22583 5.07113 7.31596 4.16125 6.19357 4.16125C5.07119 4.16125 4.16132 5.07113 4.16132 6.19351C4.16132 7.3159 5.07119 8.22577 6.19357 8.22577Z" fill="white"/>
<path d="M7.64516 15.7742V12C7.64516 11.1369 7.99064 10.3539 8.54923 9.77873C8.21332 9.5337 7.80135 9.38708 7.35484 9.38708H5.03226C3.91161 9.38708 3 10.2987 3 11.4193V13.7419C3 13.852 3.06213 13.9524 3.16055 14.0018L4.17377 14.5084L4.45219 18.408C4.46323 18.5598 4.58981 18.6774 4.74194 18.6774H7.64516C7.79729 18.6774 7.92387 18.5598 7.9349 18.4077L8.06961 16.5212C7.81297 16.367 7.64516 16.0866 7.64516 15.7742Z" fill="white"/>
<path d="M17.8064 8.22577C18.9288 8.22577 19.8387 7.3159 19.8387 6.19351C19.8387 5.07113 18.9288 4.16125 17.8064 4.16125C16.684 4.16125 15.7742 5.07113 15.7742 6.19351C15.7742 7.3159 16.684 8.22577 17.8064 8.22577Z" fill="white"/>
<path d="M16.3548 15.7742V12C16.3548 11.1369 16.0093 10.3539 15.4507 9.77873C15.7866 9.5337 16.1986 9.38708 16.6451 9.38708H18.9677C20.0884 9.38708 21 10.2987 21 11.4193V13.7419C21 13.852 20.9378 13.9524 20.8394 14.0018L19.8262 14.5084L19.5478 18.408C19.5367 18.5598 19.4102 18.6774 19.258 18.6774H16.3548C16.2027 18.6774 16.0761 18.5598 16.0651 18.4077L15.9304 16.5212C16.187 16.367 16.3548 16.0866 16.3548 15.7742Z" fill="white"/>
<path d="M13.1613 9.38708H10.8387C9.39815 9.38708 8.22583 10.5594 8.22583 12V15.7742C8.22583 15.9127 8.32338 16.0317 8.45925 16.0587L9.69196 16.3052L9.96835 20.7277C9.97793 20.8807 10.1048 21 10.2581 21H13.742C13.8952 21 14.0221 20.8807 14.0317 20.7277L14.3081 16.3055L15.5408 16.059C15.6767 16.0317 15.7742 15.9127 15.7742 15.7742V12C15.7742 10.5594 14.6019 9.38708 13.1613 9.38708Z" fill="white"/>
<path d="M12 8.22581C13.4406 8.22581 14.6129 7.05348 14.6129 5.6129C14.6129 4.17232 13.4406 3 12 3C10.5594 3 9.38708 4.17232 9.38708 5.6129C9.38708 7.05348 10.5594 8.22581 12 8.22581Z" fill="white"/>
</svg>
